<?xml version="1.0" encoding="UTF-8" standalone="no"?>
<!-- Created with Inkscape (http://www.inkscape.org/) -->

<svg
   width="100"
   height="100"
   viewBox="0 0 25 25"
   version="1.1"
   id="svg134"
   inkscape:version="1.2.2 (b0a8486541, 2022-12-01)"
   sodipodi:docname="episode-001.svg"
   xmlns:inkscape="http://www.inkscape.org/namespaces/inkscape"
   xmlns:sodipodi="http://sodipodi.sourceforge.net/DTD/sodipodi-0.dtd"
   xmlns="http://www.w3.org/2000/svg"
   xmlns:svg="http://www.w3.org/2000/svg">
  <sodipodi:namedview
     id="namedview136"
     pagecolor="#ffffff"
     bordercolor="#000000"
     borderopacity="0.25"
     inkscape:showpageshadow="2"
     inkscape:pageopacity="0.0"
     inkscape:pagecheckerboard="0"
     inkscape:deskcolor="#d1d1d1"
     inkscape:document-units="mm"
     showgrid="false"
     inkscape:zoom="9.38"
     inkscape:cx="36.780384"
     inkscape:cy="30.010661"
     inkscape:window-width="1846"
     inkscape:window-height="1011"
     inkscape:window-x="74"
     inkscape:window-y="340"
     inkscape:window-maximized="1"
     inkscape:current-layer="layer1" />
  <defs
     id="defs131" />
  <g
     inkscape:label="Layer 1"
     inkscape:groupmode="layer"
     id="layer1">
    <g
       id="g1698"
       transform="matrix(1.3333243,0,0,1.3333257,-7.9164713,-0.41665432)"
       inkscape:label="pumpkin">
      <path
         fill="#5c9e31"
         d="m 21.481477,2.1027915 c 4.45e-4,-0.011153 -0.0022,-0.022924 -0.0025,-0.03425 -1.49e-4,-0.020711 -0.002,-0.041533 -0.0045,-0.062677 -0.0016,-0.011239 -0.0023,-0.022195 -0.0045,-0.033496 -0.0073,-0.040803 -0.01732,-0.081768 -0.03301,-0.1223609 -0.178652,-0.4619693 -0.736802,-0.60765 -1.146026,-0.3535186 -0.314247,0.195226 -0.491204,0.5530104 -0.602219,0.8935585 -0.107255,0.3284307 -0.169254,0.6788829 -0.189916,1.0262687 7.05e-4,-1.484e-4 0.0015,-2.473e-4 0.0022,-3.957e-4 -2.11e-4,0.00344 -7.18e-4,0.00689 -9.15e-4,0.010312 0.100911,-0.020872 0.218232,-0.036377 0.353568,-0.043079 2.35e-4,-0.00328 7.42e-4,-0.00655 9.77e-4,-0.00983 0.045,-0.00214 0.09195,-0.0033 0.141,-0.0033 0.211617,0 0.384815,0.021181 0.525196,0.052439 -0.139046,-0.3572899 -0.238424,-0.7767494 -0.127422,-1.133013 0.04782,-0.1530377 0.135423,-0.3098219 0.285906,-0.3888817 0.168401,-0.088642 0.426301,-0.019474 0.365835,0.216382 -0.01178,0.04612 -0.05207,0.069354 -0.07617,0.1067443 -0.111014,0.1716341 0.04219,0.2864155 0.204272,0.2454266 0.202961,-0.051178 0.296825,-0.2010745 0.304627,-0.3740688 0.0011,0.00267 0.0025,0.00504 0.0036,0.00774 z"
         id="path1375"
         style="stroke-width:0.123649" />
      <path
         fill="#f4aa41"
         d="m 18.852983,3.4165267 c 4.33e-4,-1.978e-4 8.41e-4,-4.575e-4 0.0013,-6.553e-4 -0.01557,-0.00555 -0.03091,-0.00973 -0.04641,-0.014813 -0.01866,-0.00613 -0.03733,-0.012389 -0.05588,-0.017842 -0.02208,-0.00649 -0.04399,-0.012056 -0.06591,-0.01762 -0.01862,-0.00472 -0.03726,-0.0096 -0.05576,-0.013651 -0.02158,-0.00474 -0.04297,-0.00856 -0.06437,-0.012402 -0.01852,-0.00333 -0.03708,-0.00683 -0.05547,-0.00948 -0.02109,-0.00305 -0.04197,-0.00522 -0.06289,-0.00743 -0.01839,-0.00194 -0.03681,-0.00407 -0.05506,-0.00537 -0.02059,-0.00147 -0.04095,-0.00206 -0.06136,-0.00272 -0.01818,-5.935e-4 -0.0364,-0.00136 -0.05443,-0.00132 -0.02025,4.94e-5 -0.04027,9.644e-4 -0.06033,0.00179 -0.01779,7.418e-4 -0.03561,0.00127 -0.05324,0.00261 -0.01991,0.00152 -0.03959,0.00388 -0.05929,0.00616 -0.0174,0.002 -0.03486,0.00381 -0.0521,0.00639 -0.01955,0.00293 -0.03881,0.00671 -0.05813,0.010374 -0.01699,0.00323 -0.03402,0.00622 -0.05082,0.00999 -0.01925,0.00433 -0.03821,0.00948 -0.05723,0.014528 -0.01646,0.00436 -0.03299,0.00848 -0.04926,0.013379 -0.01897,0.0057 -0.03761,0.012216 -0.05632,0.018597 -0.01588,0.00542 -0.03184,0.010584 -0.04752,0.016494 -0.0187,0.00704 -0.03707,0.014899 -0.0555,0.022627 -0.01527,0.0064 -0.03063,0.012538 -0.0457,0.0194 -0.01847,0.0084 -0.03658,0.017595 -0.05475,0.026671 -0.01454,0.00726 -0.02921,0.014244 -0.04356,0.021923 -0.01821,0.00974 -0.03604,0.020266 -0.05394,0.030664 -0.01387,0.00806 -0.02787,0.015839 -0.04156,0.024284 -0.0179,0.011054 -0.03541,0.022887 -0.05298,0.034584 -0.01317,0.00877 -0.02649,0.017261 -0.03947,0.026386 -0.01766,0.012402 -0.03488,0.025558 -0.05217,0.038615 -0.01235,0.00932 -0.02488,0.018349 -0.03705,0.027981 -0.01732,0.013712 -0.03418,0.028154 -0.05112,0.042485 -0.01168,0.00989 -0.02356,0.019499 -0.03505,0.029675 -0.01687,0.014924 -0.03325,0.030553 -0.04971,0.046083 -0.01099,0.010374 -0.02218,0.020463 -0.03299,0.031097 -0.01657,0.016297 -0.03263,0.033261 -0.04876,0.050164 -0.01014,0.010609 -0.02048,0.020933 -0.03043,0.031777 -0.01615,0.017583 -0.03175,0.035808 -0.04744,0.053972 -0.0094,0.010893 -0.01905,0.021502 -0.02828,0.032606 -0.01555,0.018695 -0.03054,0.038009 -0.04561,0.057249 -0.0088,0.011215 -0.01781,0.022157 -0.02641,0.033558 -0.015,0.019858 -0.02938,0.040297 -0.04385,0.060661 -0.0081,0.011363 -0.01642,0.022479 -0.02432,0.034015 -0.01428,0.020835 -0.02794,0.042213 -0.04167,0.06353 -0.0075,0.011647 -0.0153,0.02306 -0.02264,0.034856 -0.01347,0.021638 -0.02628,0.043796 -0.03917,0.065904 -0.007,0.011981 -0.01428,0.023728 -0.02109,0.035833 -0.01265,0.022454 -0.0246,0.045366 -0.03666,0.068228 -0.0064,0.012167 -0.01316,0.024136 -0.0194,0.036426 -0.01192,0.023419 -0.02309,0.047245 -0.03438,0.071048 -0.0057,0.01213 -0.01183,0.024086 -0.01742,0.036303 -0.01082,0.023703 -0.0209,0.047752 -0.03109,0.071777 -0.0054,0.01276 -0.01118,0.025348 -0.01641,0.038195 -0.01028,0.025249 -0.01978,0.050819 -0.02935,0.076377 -0.0044,0.011771 -0.0092,0.023369 -0.01344,0.035202 -0.0091,0.025174 -0.0173,0.050633 -0.02567,0.076067 -0.0042,0.012698 -0.0087,0.025249 -0.01275,0.037997 -0.0079,0.025249 -0.015,0.050745 -0.02223,0.076191 -0.0037,0.012983 -0.0078,0.025842 -0.01128,0.038887 -0.0072,0.02672 -0.0135,0.05365 -0.01991,0.080544 -0.0028,0.011944 -0.0061,0.02379 -0.0088,0.035771 -0.0065,0.029045 -0.01212,0.058225 -0.01771,0.087406 -0.0019,0.00995 -0.0042,0.019845 -0.006,0.029811 -0.0063,0.034955 -0.01171,0.070009 -0.01666,0.1050627 -5.93e-4,0.00424 -0.0014,0.00847 -0.002,0.012711 -0.03724,0.2732472 -0.03334,0.5504015 0.0094,0.8216456 0.02138,0.1357766 0.05177,0.270193 0.093,0.4016914 0.05667,0.1805986 0.131589,0.3564862 0.222152,0.5234094 0.0804,0.1481784 0.172975,0.2893584 0.278475,0.4191999 0.01033,0.012698 0.02148,0.024593 0.03203,0.037082 0.02222,0.026287 0.04422,0.052785 0.06745,0.078095 9.9e-5,1.113e-4 1.86e-4,1.978e-4 2.85e-4,2.968e-4 0.0312,0.033966 0.06215,0.066176 0.09294,0.09731 0.01025,0.010374 0.0204,0.02008 0.03062,0.030145 0.02076,0.020464 0.04146,0.040581 0.06201,0.059833 0.0116,0.010844 0.0231,0.021317 0.03462,0.031777 0.01913,0.01736 0.03815,0.034225 0.05708,0.050559 0.01166,0.010053 0.02328,0.020068 0.03486,0.029725 0.01954,0.016309 0.03889,0.031852 0.05822,0.047097 0.01026,0.00811 0.02059,0.016507 0.0308,0.024309 0.02577,0.019722 0.05134,0.038479 0.0767,0.056371 0.0034,0.00237 0.0068,0.00506 0.01016,0.00741 0.02848,0.019858 0.05661,0.03838 0.08452,0.056049 0.0097,0.00613 0.01921,0.011709 0.02884,0.017583 0.01844,0.011264 0.03681,0.022306 0.05499,0.032643 0.01098,0.00626 0.02186,0.012179 0.03276,0.018102 0.01673,0.00911 0.03335,0.017879 0.04984,0.026238 0.01091,0.00553 0.02177,0.010992 0.03257,0.016198 0.01682,0.00811 0.03345,0.015703 0.04999,0.02306 0.0098,0.00435 0.01959,0.00889 0.02927,0.012983 0.02082,0.0088 0.04139,0.016903 0.06178,0.024581 0.005,0.00188 0.01008,0.00407 0.01504,0.00587 0.0249,0.00911 0.04941,0.017261 0.0736,0.024767 0.0085,0.00265 0.01684,0.00487 0.02527,0.00732 0.01599,0.00466 0.03189,0.00917 0.04756,0.013181 0.0095,0.00244 0.01893,0.00464 0.02835,0.00684 0.01439,0.00336 0.02864,0.00652 0.04275,0.00936 0.0093,0.00188 0.01856,0.00371 0.02773,0.00535 0.01438,0.0026 0.02851,0.00485 0.04256,0.00694 0.0081,0.00121 0.01635,0.00255 0.02438,0.0036 0.01731,0.00225 0.03428,0.00401 0.05105,0.00553 0.0044,3.957e-4 0.0089,10e-4 0.01322,0.00135 0.02081,0.00167 0.04111,0.00275 0.06106,0.00338 0.0064,1.978e-4 0.01254,1.607e-4 0.01884,2.597e-4 0.01373,2.349e-4 0.0273,3.462e-4 0.04058,1.483e-4 0.0072,-1.112e-4 0.01414,-3.585e-4 0.02118,-5.935e-4 0.01223,-4.08e-4 0.02427,-9.397e-4 0.03609,-0.00168 0.0068,-4.204e-4 0.0135,-8.779e-4 0.02017,-0.00141 0.01209,-9.645e-4 0.02389,-0.00213 0.03552,-0.0034 0.0056,-6.059e-4 0.0113,-0.00116 0.01679,-0.00185 0.01439,-0.00179 0.02838,-0.00382 0.04203,-0.00602 0.0023,-3.833e-4 0.0048,-6.677e-4 0.0071,-0.00106 0.01614,-0.00271 0.03167,-0.00569 0.04672,-0.00885 0.0034,-7.172e-4 0.0066,-0.00151 0.0099,-0.00224 0.01147,-0.00252 0.02269,-0.00513 0.0335,-0.00786 0.0042,-0.00108 0.0083,-0.00216 0.0124,-0.00326 0.0097,-0.00258 0.01919,-0.00521 0.02834,-0.00791 0.0037,-0.0011 0.0073,-0.00216 0.01094,-0.00328 0.0096,-0.00293 0.01876,-0.0059 0.02764,-0.00889 0.0026,-8.655e-4 0.0052,-0.00169 0.0077,-0.00257 0.02302,-0.00798 0.04356,-0.015951 0.06139,-0.023542 1.36e-4,-6.18e-5 2.48e-4,-1.113e-4 3.84e-4,-1.731e-4 0.0066,-0.00282 0.01304,-0.0056 0.01892,-0.00827 0,0 -8.6e-5,-6.18e-5 -1.23e-4,-8.65e-5 0.04289,-0.019499 0.0661,-0.034374 0.0661,-0.034374 0.181668,0.1809571 0.948356,0.212079 1.000191,0.2139955 0.0019,6.19e-5 0.0036,6.19e-5 0.0055,0 0.05183,-0.0019 0.818522,-0.033038 1.000191,-0.2139955 0,0 0.846245,0.5485715 1.927551,-0.6288554 0.870203,-0.8710481 0.976815,-2.537659 0.249313,-3.5446759 C 23.070372,4.0456789 22.994413,3.9566655 22.910998,3.8747 22.779729,3.745724 22.633462,3.6316722 22.474681,3.5406187 22.025493,3.2829758 21.507135,3.246772 21.024709,3.4303628 c 0,0 -0.250753,-0.3077322 -1.06564,-0.3077322 -0.814887,0 -1.065639,0.3077322 -1.065639,0.3077322 -0.01358,-0.00513 -0.02693,-0.00903 -0.04045,-0.013836"
         id="path1377"
         style="stroke-width:0.123649" />
      <path
         fill="#e27022"
         d="m 21.07203,8.3485515 c 0.216427,0.099276 0.948431,0.3204555 1.842924,-0.6632664 0.271427,-0.2985576 0.473103,-0.6681998 0.594145,-1.057811 0.122378,-0.3942355 0.156654,-0.8133612 0.101357,-1.2234112 -0.168735,-1.2506753 -1.203325,-2.4561948 -2.502938,-1.9881792 0.712034,0.335219 1.213465,1.1670654 1.328386,2.0188931 0.05753,0.4262725 0.02176,0.8619544 -0.105375,1.2716953 -0.125803,0.4051165 -0.33538,0.789213 -0.61754,1.0996902 -0.225391,0.2478624 -0.440792,0.4221055 -0.640959,0.5423892 z"
         id="path1379"
         style="stroke-width:0.123649" />
      <path
         fill="none"
         stroke="#000000"
         stroke-linecap="round"
         stroke-linejoin="round"
         stroke-miterlimit="10"
         stroke-width="0.247298"
         d="m 20.430502,3.1571651 c -0.08408,-0.2893336 -0.121178,-0.5972142 -0.0371,-0.8680007 0.04822,-0.1533221 0.136016,-0.3091171 0.285635,-0.3882511 0.168165,-0.089026 0.426597,-0.019783 0.366008,0.216382 -0.01113,0.045749 -0.05193,0.069242 -0.07666,0.1063363 -0.11005,0.171869 0.04328,0.2868606 0.205261,0.2460571 0.202788,-0.051932 0.296763,-0.2015443 0.304182,-0.3746499 0.0012,0.00247 0.0025,0.00495 0.0037,0.00742 0,-0.011128 -0.0025,-0.022257 -0.0025,-0.033385 0,-0.02102 -0.0025,-0.04204 -0.0049,-0.06306 -0.0012,-0.011128 -0.0025,-0.022256 -0.0037,-0.033385 -0.0074,-0.040803 -0.01731,-0.081607 -0.03339,-0.1224104 C 21.25773,1.387779 20.700062,1.2418757 20.290776,1.4965882 c -0.314074,0.195362 -0.490895,0.5527013 -0.602182,0.8939666 -0.08161,0.2485301 -0.137253,0.5106614 -0.168165,0.7740291"
         id="path1393" />
      <path
         fill="none"
         stroke="#000000"
         stroke-linecap="round"
         stroke-linejoin="round"
         stroke-miterlimit="10"
         stroke-width="0.247298"
         d="m 16.44088,5.1691463 c -0.0065,0.029045 -0.01199,0.058225 -0.01753,0.087406 -0.0019,0.00995 -0.0042,0.019845 -0.006,0.029811 -0.0062,0.034955 -0.0116,0.070009 -0.01649,0.1050627 -5.93e-4,0.00424 -0.0014,0.00847 -0.002,0.012711 -0.03687,0.2732472 -0.033,0.5504015 0.0093,0.8216456 0.02116,0.1357766 0.05125,0.270193 0.09207,0.4016914 0.0561,0.1805986 0.130266,0.3564862 0.219938,0.5234094 0.0796,0.1481784 0.171245,0.2893584 0.275693,0.4191999 0.01021,0.012698 0.02127,0.024593 0.0317,0.037082 0.022,0.026287 0.04377,0.052785 0.06677,0.078095 9.9e-5,1.113e-4 1.86e-4,1.978e-4 2.85e-4,2.968e-4 0.03089,0.033966 0.06153,0.066176 0.09201,0.09731 0.01015,0.010374 0.0202,0.02008 0.03031,0.030145 0.02055,0.020464 0.04105,0.040581 0.06139,0.059833 0.01148,0.010844 0.02286,0.021317 0.03428,0.031777 0.01893,0.01736 0.03776,0.034225 0.05651,0.050559 0.01154,0.010053 0.02305,0.020068 0.03451,0.029725 0.01934,0.016309 0.0385,0.031852 0.05763,0.047097 0.01016,0.00811 0.02039,0.016507 0.03049,0.024309 0.02552,0.019722 0.05083,0.038479 0.07593,0.056371 0.0033,0.00237 0.0067,0.00506 0.01006,0.00741 0.02819,0.019858 0.05604,0.03838 0.08367,0.056049 0.0096,0.00613 0.01903,0.011709 0.02855,0.017583 0.01825,0.011264 0.03644,0.022306 0.05443,0.032643 0.01088,0.00626 0.02164,0.012179 0.03242,0.018102 0.01657,0.00911 0.03301,0.017879 0.04934,0.026238 0.01079,0.00553 0.02156,0.010992 0.03225,0.016198 0.01664,0.00811 0.03311,0.015703 0.0495,0.02306 0.0097,0.00435 0.0194,0.00889 0.02897,0.012983 0.02061,0.0088 0.04098,0.016903 0.06116,0.024581 0.0049,0.00188 0.01,0.00407 0.01489,0.00587 0.02466,0.00911 0.04892,0.017261 0.07287,0.024767 0.0084,0.00265 0.01667,0.00487 0.02501,0.00732 0.01584,0.00466 0.03158,0.00917 0.04707,0.013181 0.0094,0.00244 0.01875,0.00464 0.02808,0.00684 0.01424,0.00336 0.02835,0.00652 0.04231,0.00936 0.0092,0.00188 0.01837,0.00371 0.02745,0.00535 0.01423,0.0026 0.02823,0.00485 0.04214,0.00694 0.0081,0.00121 0.01619,0.00255 0.02414,0.0036 0.01714,0.00225 0.03393,0.00401 0.05055,0.00553 0.0043,3.957e-4 0.0088,10e-4 0.01308,0.00135 0.0206,0.00167 0.04071,0.00275 0.06045,0.00338 0.0063,1.978e-4 0.01242,1.607e-4 0.01866,2.597e-4 0.01359,2.349e-4 0.02703,3.462e-4 0.04018,1.483e-4 0.0071,-1.112e-4 0.01401,-3.585e-4 0.02097,-5.935e-4 0.01211,-4.08e-4 0.02403,-9.397e-4 0.03573,-0.00168 0.0067,-4.204e-4 0.01338,-8.779e-4 0.01996,-0.00141 0.01197,-9.645e-4 0.02364,-0.00213 0.03517,-0.0034 0.0056,-6.059e-4 0.01119,-0.00116 0.01663,-0.00185 0.01425,-0.00179 0.02809,-0.00382 0.04161,-0.00602 0.0023,-3.833e-4 0.0048,-6.677e-4 0.0071,-0.00106 0.01598,-0.00271 0.03135,-0.00569 0.04625,-0.00885 0.0034,-7.172e-4 0.0065,-0.00151 0.0098,-0.00224 0.01136,-0.00252 0.02247,-0.00513 0.03316,-0.00786 0.0042,-0.00108 0.0082,-0.00216 0.01228,-0.00326 0.0096,-0.00258 0.01899,-0.00521 0.02806,-0.00791 0.0037,-0.0011 0.0073,-0.00216 0.01083,-0.00328 0.0095,-0.00293 0.01857,-0.0059 0.02736,-0.00889 0.0025,-8.655e-4 0.0051,-0.00169 0.0076,-0.00257 0.02279,-0.00798 0.04313,-0.015951 0.06079,-0.023542 1.36e-4,-6.18e-5 2.47e-4,-1.113e-4 3.83e-4,-1.731e-4 0.0066,-0.00282 0.01292,-0.0056 0.01873,-0.00827 -3.7e-5,-2.47e-5 -8.7e-5,-6.18e-5 -1.24e-4,-8.65e-5 0.04246,-0.019499 0.06545,-0.034374 0.06545,-0.034374 0.179851,0.1809571 0.938885,0.212079 0.990212,0.2139955 0.0019,6.19e-5 0.0036,6.19e-5 0.0055,0 0.05131,-0.0019 0.810349,-0.033038 0.990212,-0.2139955 0,0 0.8378,0.5485715 1.908299,-0.6288554 0.86154,-0.8710054 0.967089,-2.5376163 0.246857,-3.5446332 C 23.075849,4.0456789 23.000657,3.9566655 22.91807,3.8747 22.788113,3.745724 22.643317,3.6316722 22.486119,3.5406187 22.04142,3.2829758 21.528242,3.246772 21.050626,3.4303628 c 0,0 -0.248242,-0.3077322 -1.054993,-0.3077322 -0.806751,0 -1.054993,0.3077322 -1.054993,0.3077322 -0.01343,-0.00516 -0.02665,-0.00905 -0.04003,-0.013861"
         id="path1395" />
      <path
         fill="none"
         stroke="#000000"
         stroke-linecap="round"
         stroke-linejoin="round"
         stroke-miterlimit="10"
         stroke-width="0.247298"
         d="m 18.900602,3.4165267 c 4.32e-4,-1.978e-4 8.28e-4,-4.575e-4 0.0013,-6.553e-4 -0.01541,-0.00555 -0.0306,-0.00973 -0.04594,-0.014813 -0.01847,-0.00613 -0.03696,-0.012389 -0.05532,-0.017842 -0.02186,-0.00649 -0.04355,-0.012056 -0.06525,-0.01762 -0.01844,-0.00472 -0.03689,-0.0096 -0.0552,-0.013651 -0.02135,-0.00474 -0.04254,-0.00856 -0.06373,-0.012402 -0.01834,-0.00333 -0.03671,-0.00683 -0.05493,-0.00948 -0.02088,-0.00305 -0.04156,-0.00522 -0.06226,-0.00743 -0.0182,-0.00194 -0.03644,-0.00407 -0.05452,-0.00537 -0.02038,-0.00147 -0.04055,-0.00206 -0.06074,-0.00272 -0.018,-5.935e-4 -0.03603,-0.00136 -0.05389,-0.00132 -0.02006,4.94e-5 -0.03986,9.644e-4 -0.05972,0.00179 -0.01762,7.418e-4 -0.03527,0.00127 -0.05271,0.00261 -0.01971,0.00152 -0.0392,0.00388 -0.0587,0.00616 -0.01722,0.002 -0.03451,0.00381 -0.05157,0.00639 -0.01935,0.00293 -0.03843,0.00671 -0.05756,0.010374 -0.01682,0.00323 -0.03368,0.00622 -0.05031,0.00999 -0.01905,0.00433 -0.03783,0.00948 -0.05664,0.014528 -0.0163,0.00436 -0.03266,0.00848 -0.04878,0.013379 -0.01878,0.0057 -0.03723,0.012216 -0.05577,0.018597 -0.01572,0.00542 -0.03152,0.010584 -0.04705,0.016494 -0.01851,0.00704 -0.0367,0.014899 -0.05494,0.022627 -0.01512,0.0064 -0.03032,0.012538 -0.04524,0.0194 -0.01829,0.0084 -0.0362,0.017595 -0.05421,0.026671 -0.01441,0.00726 -0.02892,0.014244 -0.04313,0.021923 -0.01803,0.00974 -0.03569,0.020266 -0.05339,0.030664 -0.01374,0.00806 -0.02759,0.015839 -0.04114,0.024284 -0.01773,0.011054 -0.03506,0.022887 -0.05245,0.034584 -0.01304,0.00877 -0.02623,0.017261 -0.03907,0.026386 -0.01748,0.012402 -0.03452,0.025558 -0.05165,0.038615 -0.01223,0.00932 -0.02463,0.018349 -0.03668,0.027981 -0.01715,0.013712 -0.03383,0.028154 -0.0506,0.042485 -0.01157,0.00989 -0.02332,0.019499 -0.03471,0.029675 -0.01669,0.014924 -0.03292,0.030553 -0.0492,0.046083 -0.01088,0.010374 -0.02196,0.020463 -0.03267,0.031097 -0.01641,0.016297 -0.0323,0.033261 -0.04827,0.050164 -0.01004,0.010609 -0.02027,0.020933 -0.03013,0.031777 -0.01599,0.017583 -0.03144,0.035808 -0.04696,0.053972 -0.0093,0.010893 -0.01886,0.021502 -0.02799,0.032606"
         id="path1397" />
    </g>
    <g
       id="the_underbar"
       inkscape:label="#the underbar"
       transform="matrix(0.7988209,0,0,0.7996067,-33.57194,-111.11746)">
      <text
         xml:space="preserve"
         style="font-style:normal;font-variant:normal;font-weight:bold;font-stretch:normal;font-size:29.0237px;font-family:'Courier New';-inkscape-font-specification:'Courier New, Bold';font-variant-ligatures:normal;font-variant-caps:normal;font-variant-numeric:normal;font-variant-east-asian:normal;fill:#000000;stroke-width:0.518279"
         x="49.861382"
         y="164.40616"
         id="underscore"
         transform="scale(1.0264101,0.97426944)"
         inkscape:label="#underscore"><tspan
           sodipodi:role="line"
           id="tspan111-7-9"
           style="font-style:normal;font-variant:normal;font-weight:bold;font-stretch:normal;font-size:29.0237px;font-family:'Courier New';-inkscape-font-specification:'Courier New, Bold';font-variant-ligatures:normal;font-variant-caps:normal;font-variant-numeric:normal;font-variant-east-asian:normal;fill:#000000;stroke-width:0.518279"
           x="49.861382"
           y="164.40616">_ </tspan></text>
      <text
         xml:space="preserve"
         style="font-style:normal;font-variant:normal;font-weight:bold;font-stretch:normal;font-size:29.0237px;font-family:'Courier New';-inkscape-font-specification:'Courier New, Bold';font-variant-ligatures:normal;font-variant-caps:normal;font-variant-numeric:normal;font-variant-east-asian:normal;fill:#000000;stroke-width:0.518279;image-rendering:auto"
         x="41.489616"
         y="164.40616"
         id="dollar"
         transform="scale(1.0264101,0.97426944)"
         inkscape:label="#dollar"><tspan
           sodipodi:role="line"
           id="tspan111-7-9-1"
           style="font-style:normal;font-variant:normal;font-weight:bold;font-stretch:normal;font-size:29.0237px;font-family:'Courier New';-inkscape-font-specification:'Courier New, Bold';font-variant-ligatures:normal;font-variant-caps:normal;font-variant-numeric:normal;font-variant-east-asian:normal;fill:#000000;stroke-width:0.518279"
           x="41.489616"
           y="164.40616">$ </tspan></text>
      <g
         id="beer"
         transform="matrix(0.32935458,0,0,0.29539741,48.603381,146.62701)"
         inkscape:label="#beer">
        <g
           id="g497"
           transform="translate(-9.3089803e-8,-3.176991)">
          <g
             id="color">
            <rect
               x="19"
               y="23.230101"
               width="29.999701"
               height="36.385601"
               fill="#fcea2b"
               id="rect380" />
            <polygon
               fill="#f1b31c"
               points="48.9998,23.2301 40.5264,23.2301 33,59.6157 48.9998,59.6157 "
               id="polygon382" />
            <path
               fill="#ffffff"
               d="m 44.1933,15.3999 c -1.304,-0.001 -2.5018,0.4709 -3.4585,1.2577 -0.9376,-1.9375 -2.8336,-3.2665 -5.0258,-3.2682 -0.8005,-6e-4 -1.5606,0.1771 -2.2511,0.4952 -1.1199,-1.5208 -2.8597,-2.5031 -4.819,-2.5046 -2.9465,-0.0023 -5.4063,2.205 -5.997,5.1492 C 22.294,16.4418 21.9358,16.3844 21.5634,16.3841 18.9601,16.382 16.8472,18.6237 16.845,21.39 l -0.0063,8.0154 c -9e-4,1.1021 0.847,2.0045 1.8842,2.0053 l 0.9429,7e-4 c 1.0372,8e-4 1.8865,-0.9002 1.8873,-2.0024 l 0.0013,-1.5991 c 0.5711,0.3722 1.2338,0.5981 1.9494,0.5987 l 1.8546,0.0015 c 1.2022,9e-4 2.2653,-0.6144 2.9581,-1.5517 1.0256,1.5428 2.7125,2.5581 4.6153,2.5596 3.1115,0.0025 5.6594,-2.7007 5.662,-6.0071 l 10.9214,0.0086 c 0.2098,-0.627 0.3301,-1.3002 0.3306,-2.0036 0.0027,-3.3203 -2.5278,-6.0135 -5.6525,-6.016 z"
               id="path384" />
            <path
               fill="#ffffff"
               d="m 19.8066,24.8075 c 0.0022,-2.6882 2.115,-4.8665 4.7184,-4.8646 0.3724,3e-4 0.7307,0.0561 1.0785,0.141 0.5907,-2.861 3.0506,-5.006 5.9971,-5.0037 1.9593,0.0015 3.699,0.956 4.8189,2.4339 0.6904,-0.3091 1.4505,-0.4818 2.2511,-0.4812 2.1922,0.0017 4.0882,1.2932 5.0258,3.1759 0.9567,-0.7645 2.1545,-1.2232 3.4585,-1.2222 0.5297,4e-4 1.0401,0.0815 1.5261,0.2223 -0.7688,-2.2807 -2.8627,-3.9207 -5.3338,-3.9226 -1.304,-0.001 -2.5018,0.4577 -3.4585,1.2222 -0.9376,-1.8828 -2.8336,-3.1742 -5.0258,-3.1759 -0.8005,-6e-4 -1.5607,0.1721 -2.2511,0.4812 -1.1199,-1.4778 -2.8597,-2.4324 -4.8189,-2.4339 -2.9465,-0.0023 -5.4064,2.1427 -5.9971,5.0037 -0.3478,-0.085 -0.7061,-0.1407 -1.0785,-0.141 -2.6034,-0.002 -4.7163,2.1764 -4.7184,4.8646 l -0.0063,7.7891 c -9e-4,1.071 0.847,1.9479 1.8842,1.9487 l 0.9429,7e-4 c 0.3605,3e-4 0.6951,-0.1105 0.9824,-0.2934 z"
               id="path386" />
          </g>
          <g
             id="hair" />
          <g
             id="skin" />
          <g
             id="skin-shadow" />
          <g
             id="line-1">
            <path
               fill="none"
               stroke="#000000"
               stroke-linecap="round"
               stroke-linejoin="round"
               stroke-miterlimit="10"
               stroke-width="2"
               d="m 49.5,50.5 h 6 c 2.2,0 4,-1.8 4,-4 v -14 c 0,-2.2 -1.8,-4 -4,-4 h -6"
               id="path392-7" />
            <polyline
               fill="none"
               stroke="#000000"
               stroke-linecap="round"
               stroke-linejoin="round"
               stroke-miterlimit="10"
               stroke-width="2.0185"
               points="38.5938,23.2301 48.9997,23.2301 48.9997,60 20,60 20,39.6348"
               id="polyline394-7" />
            <path
               fill="none"
               stroke="#000000"
               stroke-linecap="round"
               stroke-linejoin="round"
               stroke-miterlimit="10"
               stroke-width="2"
               d="m 20.2515,31.3124 c 0.753,-0.2628 1.3009,-1.0182 1.3016,-1.9033 L 21.5544,27.81 c 0.5711,0.3722 1.2338,0.5981 1.9494,0.5987 l 1.8546,0.0015 c 1.2022,9e-4 2.2653,-0.6144 2.9581,-1.5517 1.0256,1.5428 2.7125,2.5581 4.6153,2.5596 3.1115,0.0025 5.6594,-2.7007 5.662,-6.0071 l 10.9214,0.0086 c 0.2098,-0.627 0.3301,-1.3002 0.3306,-2.0036 0.0026,-3.3204 -2.5278,-6.0136 -5.6525,-6.016 -1.304,-0.001 -2.5018,0.4709 -3.4585,1.2577 -0.9376,-1.9375 -2.8336,-3.2665 -5.0258,-3.2682 -0.8005,-6e-4 -1.5606,0.1771 -2.2511,0.4952 -1.1199,-1.5208 -2.8597,-2.5031 -4.819,-2.5046 -2.9465,-0.0023 -5.4063,2.205 -5.997,5.1492 -0.3479,-0.0874 -0.7061,-0.1448 -1.0785,-0.1451 -2.6033,-0.0021 -4.7162,2.2396 -4.7184,5.0059 l -0.0063,8.0154 c -9e-4,1.1021 0.847,2.0045 1.8842,2.0053 l 0.9429,7e-4 c 0.2042,10e-5 0.4011,-0.0347 0.5857,-0.0991"
               id="path396-1" />
          </g>
        </g>
      </g>
    </g>
  </g>
</svg>
