<?xml version="1.0" encoding="UTF-8" standalone="no"?>
<!-- Created with Inkscape (http://www.inkscape.org/) -->

<svg
   width="100"
   height="100"
   viewBox="0 0 25 25"
   version="1.1"
   id="svg134"
   inkscape:version="1.2.2 (b0a8486541, 2022-12-01)"
   sodipodi:docname="episode-cpansec.svg"
   xmlns:inkscape="http://www.inkscape.org/namespaces/inkscape"
   xmlns:sodipodi="http://sodipodi.sourceforge.net/DTD/sodipodi-0.dtd"
   xmlns="http://www.w3.org/2000/svg"
   xmlns:svg="http://www.w3.org/2000/svg">
  <sodipodi:namedview
     id="namedview136"
     pagecolor="#ffffff"
     bordercolor="#000000"
     borderopacity="0.25"
     inkscape:showpageshadow="2"
     inkscape:pageopacity="0.0"
     inkscape:pagecheckerboard="0"
     inkscape:deskcolor="#d1d1d1"
     inkscape:document-units="mm"
     showgrid="false"
     inkscape:zoom="7.85"
     inkscape:cx="18.089172"
     inkscape:cy="50.382166"
     inkscape:window-width="1846"
     inkscape:window-height="1011"
     inkscape:window-x="74"
     inkscape:window-y="340"
     inkscape:window-maximized="1"
     inkscape:current-layer="layer1" />
  <defs
     id="defs131" />
  <g
     inkscape:label="Layer 1"
     inkscape:groupmode="layer"
     id="layer1">
    <text
       xml:space="preserve"
       style="font-style:normal;font-variant:normal;font-weight:bold;font-stretch:normal;font-size:23.1961px;font-family:'Courier New';-inkscape-font-specification:'Courier New, Bold';font-variant-ligatures:normal;font-variant-caps:normal;font-variant-numeric:normal;font-variant-east-asian:normal;fill:#000000;stroke-width:0.414216"
       x="7.1257005"
       y="17.399626"
       id="underscore"
       transform="scale(1.0259056,0.97474852)"
       inkscape:label="#underscore"><tspan
         sodipodi:role="line"
         id="tspan111-7-9"
         style="font-style:normal;font-variant:normal;font-weight:bold;font-stretch:normal;font-size:23.1961px;font-family:'Courier New';-inkscape-font-specification:'Courier New, Bold';font-variant-ligatures:normal;font-variant-caps:normal;font-variant-numeric:normal;font-variant-east-asian:normal;fill:#000000;stroke-width:0.414216"
         x="7.1257005"
         y="17.399626">_ </tspan></text>
    <text
       xml:space="preserve"
       style="font-style:normal;font-variant:normal;font-weight:bold;font-stretch:normal;font-size:23.1961px;font-family:'Courier New';-inkscape-font-specification:'Courier New, Bold';font-variant-ligatures:normal;font-variant-caps:normal;font-variant-numeric:normal;font-variant-east-asian:normal;fill:#000000;stroke-width:0.414216;image-rendering:auto"
       x="0.43487105"
       y="17.399626"
       id="dollar"
       transform="scale(1.0259056,0.97474852)"
       inkscape:label="#dollar"><tspan
         sodipodi:role="line"
         id="tspan111-7-9-1"
         style="font-style:normal;font-variant:normal;font-weight:bold;font-stretch:normal;font-size:23.1961px;font-family:'Courier New';-inkscape-font-specification:'Courier New, Bold';font-variant-ligatures:normal;font-variant-caps:normal;font-variant-numeric:normal;font-variant-east-asian:normal;fill:#000000;stroke-width:0.414216"
         x="0.43487105"
         y="17.399626">$ </tspan></text>
    <g
       id="g391">
      <g
         id="use20"
         transform="matrix(0.39772729,0,0,0.39772729,15,1.25)"
         style="fill:#da2037;fill-opacity:1"
         inkscape:label="glider">
        <circle
           cx="3"
           r="3"
           cy="19"
           id="circle25"
           style="fill:#da2037;fill-opacity:1" />
        <circle
           r="3"
           cy="19"
           cx="11"
           id="circle26"
           style="fill:#da2037;fill-opacity:1" />
        <circle
           r="3"
           cy="19"
           cx="19"
           id="circle27"
           style="fill:#da2037;fill-opacity:1" />
        <circle
           cx="11"
           r="3"
           cy="3"
           id="circle28"
           style="fill:#da2037;fill-opacity:1" />
        <circle
           cy="11"
           r="3"
           cx="19"
           id="circle29"
           style="fill:#da2037;fill-opacity:1" />
      </g>
      <g
         id="g373"
         transform="translate(0,1.3878271)"
         inkscape:label="cpansec"
         style="display:none">
        <g
           id="g783"
           transform="matrix(1.7834229,0,0,1.7834017,-17.925018,2.7707479)"
           inkscape:label="sec">
          <path
             id="path21-6"
             style="fill:#43424a;stroke-width:0.00804382"
             d="m 19.801567,1.25 c -0.309261,0 -0.471083,0.2151874 -0.471083,0.4277213 0,0.2638267 0.21261,0.3039679 0.434748,0.3039679 0.0563,0 0.19335,-0.012435 0.198001,0.074107 0,0.1021675 -0.04367,0.166439 -0.196681,0.166439 -0.05776,0 -0.134759,-0.01264 -0.173571,-0.072599 -0.04118,-0.063747 -0.12613,-0.081952 -0.189721,-0.040659 -0.0636,0.041295 -0.08178,0.1264383 -0.0406,0.1901927 0.08257,0.1277439 0.225991,0.1980792 0.403904,0.1980792 0.30926,0 0.471066,-0.2111103 0.471066,-0.4236683 0,-0.263285 -0.193238,-0.3063925 -0.452216,-0.3160338 -0.160945,0 -0.180516,-0.025181 -0.180516,-0.079842 0,-0.035811 0.01417,-0.1526757 0.196665,-0.1526757 0.05776,0 0.134815,0.012608 0.173587,0.072568 0.04118,0.063743 0.126137,0.081931 0.189721,0.040628 0.0636,-0.041279 0.08176,-0.1264154 0.04058,-0.1901612 C 20.122877,1.3203438 19.979481,1.25 19.801567,1.25 Z"
             sodipodi:nodetypes="ssssscccssssscccs" />
          <path
             d="m 20.961069,2.4972492 c -0.32012,0 -0.492854,-0.219878 -0.492854,-0.4267734 v -0.392756 c 0,-0.1099994 0.04083,-0.213242 0.114946,-0.2907202 0.05979,-0.062508 0.169911,-0.1369864 0.354959,-0.1369864 0.185048,0 0.295169,0.074494 0.35495,0.1369864 0.07411,0.077486 0.114931,0.1807208 0.114931,0.2907202 v 0.1990204 a 0.13720361,0.13750927 0 0 1 -0.137212,0.1375092 h -0.528135 v 0.05621 c 0,0.06102 0.05818,0.1517711 0.218447,0.1517711 0.06299,0 0.155004,-0.017793 0.189175,-0.032578 a 0.13721426,0.13751994 0 1 1 0.108495,0.2526325 c -0.07267,0.031355 -0.200629,0.054964 -0.297702,0.054964 z M 20.74263,1.7392229 h 0.390931 v -0.061503 c 0,-0.035827 -0.0141,-0.1527121 -0.195465,-0.1527121 -0.181365,0 -0.195466,0.1168848 -0.195466,0.1527121 z"
             id="path18"
             style="fill:#43424a;stroke-width:0.00804382" />
          <path
             id="path21-6-1"
             d="m 22.073317,2.4972492 c -0.309261,0 -0.471071,-0.2151482 -0.471071,-0.4277064 v -0.391823 c 0,-0.2125341 0.16181,-0.4277146 0.471071,-0.4277146 0.177913,0 0.321319,0.070344 0.403896,0.1980633 a 0.13720361,0.13750927 0 0 1 -0.04059,0.1901641 0.13714729,0.13744492 0 0 1 -0.189721,-0.040637 c -0.03878,-0.059959 -0.115832,-0.072564 -0.173586,-0.072564 -0.182499,0 -0.196664,0.1168607 -0.196664,0.1526719 v 0.391815 c 0,0.035843 0.01417,0.1527121 0.196672,0.1527121 0.05776,0 0.134766,-0.012629 0.173578,-0.072588 a 0.13716338,0.13746905 0 0 1 0.189721,-0.040662 0.13725187,0.13754949 0 0 1 0.04059,0.1901884 c -0.08257,0.127744 -0.225983,0.1980792 -0.403896,0.1980802 z"
             style="fill:#43424a;stroke-width:0.00804382" />
        </g>
        <g
           id="g778"
           transform="matrix(1.7834017,0,0,1.7834017,-6.7778154,-0.97925213)"
           inkscape:label="cpan">
          <path
             id="path21"
             d="M 12.972864,2.5020302 C 12.662426,2.5020302 12.5,2.2860633 12.5,2.0726963 V 1.6793824 c 0,-0.2133428 0.162426,-0.429342 0.472864,-0.429342 0.178589,0 0.32254,0.070611 0.405433,0.1988169 A 0.13772566,0.13803249 0 0 1 13.33755,1.639745 0.13766914,0.13796789 0 0 1 13.147107,1.5989531 c -0.03892,-0.060186 -0.116273,-0.07284 -0.174246,-0.07284 -0.183194,0 -0.197413,0.1173054 -0.197413,0.1532527 v 0.3933059 c 0,0.035979 0.01422,0.1532932 0.197421,0.1532932 0.05798,0 0.135278,-0.012677 0.174238,-0.072864 a 0.13768529,0.13799212 0 0 1 0.190443,-0.040816 0.13777411,0.13807286 0 0 1 0.04075,0.1909119 c -0.08289,0.1282302 -0.226844,0.198833 -0.405433,0.1988325 z"
             style="fill:#43424a;stroke-width:0.00807443"
             inkscape:label="path21" />
          <path
             d="m 14.052779,1.2500808 c -0.09754,0 -0.180383,0.021316 -0.248209,0.057167 A 0.13710393,0.13742691 0 0 0 13.71769,1.2762418 0.13774989,0.13799212 0 0 0 13.57994,1.414234 v 1.3249342 a 0.13774989,0.13807286 0 0 0 0.275499,0 V 2.4677058 c 0.05717,0.021801 0.122974,0.034316 0.197421,0.034316 0.310461,0 0.472838,-0.2159912 0.472838,-0.4293178 V 1.6793985 c 0,-0.2133266 -0.162458,-0.4293177 -0.472838,-0.4293177 z m 0.19742,0.8226236 c 0,0.036012 -0.01421,0.1532528 -0.19742,0.1532528 -0.18321,0 -0.197421,-0.1173216 -0.197421,-0.1532528 V 1.6793985 c 0,-0.035931 0.01421,-0.1532527 0.197421,-0.1532527 0.183209,0 0.19742,0.1173215 0.19742,0.1532527 z"
             id="path22"
             style="fill:#43424a;stroke-width:0.00807443" />
          <path
             d="m 15.143554,1.250323 c -0.122489,0 -0.236096,0.042956 -0.337834,0.1277376 a 0.13766914,0.13799212 0 0 0 -0.01776,0.1943516 0.13774989,0.13799212 0 0 0 0.193947,0.017845 c 0.05225,-0.043602 0.103595,-0.063869 0.16157,-0.063869 0.160843,0 0.219301,0.09108 0.219301,0.1522839 v 0.015099 c -0.236742,-0.015422 -0.415429,0.025515 -0.532267,0.122247 -0.08526,0.070571 -0.132905,0.1666564 -0.137911,0.2778414 -0.0055,0.1226507 0.04587,0.2370654 0.140899,0.3138534 0.07686,0.062173 0.174246,0.09439 0.27881,0.09439 0.04587,0 0.09302,-0.00614 0.140496,-0.018733 0.05346,-0.01413 0.09859,-0.036335 0.136699,-0.063626 a 0.13734617,0.13766914 0 0 0 0.11062,0.056118 h 0.001 a 0.13783063,0.13807286 0 0 0 0.13775,-0.137992 l 0.0035,-0.659197 C 15.642329,1.4709973 15.468955,1.2502423 15.147592,1.2502423 Z m 0.03892,0.9661063 c -0.06927,0.018329 -0.135085,0.00953 -0.176023,-0.023577 -0.01865,-0.01518 -0.04062,-0.042472 -0.0386,-0.086639 0.0015,-0.032459 0.01357,-0.057006 0.03811,-0.077353 0.02624,-0.02172 0.09754,-0.062334 0.262904,-0.062334 0.02834,0 0.05959,0.00124 0.09382,0.00392 l -6.5e-5,0.1339549 c -0.0022,0.040291 -0.07066,0.083086 -0.18006,0.1120732 z"
             id="path23"
             style="fill:#43424a;stroke-width:0.00807443" />
          <path
             d="m 16.347594,1.25 c -0.0993,0 -0.183641,0.021701 -0.25269,0.0582 a 0.14023728,0.14056609 0 0 0 -0.228687,0.109 v 0.9402309 a 0.1402373,0.14056611 0 1 0 0.280474,0 V 1.6870702 c 0,-0.03658 0.01447,-0.1560202 0.200985,-0.1560202 0.186435,0 0.200985,0.1194401 0.200985,0.1560202 v 0.6703604 a 0.1402375,0.14056631 0 1 0 0.280475,0 V 1.6871523 c -9.7e-5,-0.2172609 -0.165392,-0.4370701 -0.48146,-0.4370701 z"
             id="path24"
             style="fill:#43424a;stroke-width:0.00822026" />
        </g>
      </g>
    </g>
    <g
       id="beer"
       transform="matrix(0.26309532,0,0,0.23620175,5.2534566,6.1264796)"
       inkscape:label="#beer">
      <g
         id="g497"
         transform="translate(-9.3089803e-8,-3.176991)">
        <g
           id="color">
          <rect
             x="19"
             y="23.230101"
             width="29.999701"
             height="36.385601"
             fill="#fcea2b"
             id="rect380" />
          <polygon
             fill="#f1b31c"
             points="33,59.6157 48.9998,59.6157 48.9998,23.2301 40.5264,23.2301 "
             id="polygon382" />
          <path
             fill="#ffffff"
             d="m 44.1933,15.3999 c -1.304,-0.001 -2.5018,0.4709 -3.4585,1.2577 -0.9376,-1.9375 -2.8336,-3.2665 -5.0258,-3.2682 -0.8005,-6e-4 -1.5606,0.1771 -2.2511,0.4952 -1.1199,-1.5208 -2.8597,-2.5031 -4.819,-2.5046 -2.9465,-0.0023 -5.4063,2.205 -5.997,5.1492 C 22.294,16.4418 21.9358,16.3844 21.5634,16.3841 18.9601,16.382 16.8472,18.6237 16.845,21.39 l -0.0063,8.0154 c -9e-4,1.1021 0.847,2.0045 1.8842,2.0053 l 0.9429,7e-4 c 1.0372,8e-4 1.8865,-0.9002 1.8873,-2.0024 l 0.0013,-1.5991 c 0.5711,0.3722 1.2338,0.5981 1.9494,0.5987 l 1.8546,0.0015 c 1.2022,9e-4 2.2653,-0.6144 2.9581,-1.5517 1.0256,1.5428 2.7125,2.5581 4.6153,2.5596 3.1115,0.0025 5.6594,-2.7007 5.662,-6.0071 l 10.9214,0.0086 c 0.2098,-0.627 0.3301,-1.3002 0.3306,-2.0036 0.0027,-3.3203 -2.5278,-6.0135 -5.6525,-6.016 z"
             id="path384" />
          <path
             fill="#ffffff"
             d="m 19.8066,24.8075 c 0.0022,-2.6882 2.115,-4.8665 4.7184,-4.8646 0.3724,3e-4 0.7307,0.0561 1.0785,0.141 0.5907,-2.861 3.0506,-5.006 5.9971,-5.0037 1.9593,0.0015 3.699,0.956 4.8189,2.4339 0.6904,-0.3091 1.4505,-0.4818 2.2511,-0.4812 2.1922,0.0017 4.0882,1.2932 5.0258,3.1759 0.9567,-0.7645 2.1545,-1.2232 3.4585,-1.2222 0.5297,4e-4 1.0401,0.0815 1.5261,0.2223 -0.7688,-2.2807 -2.8627,-3.9207 -5.3338,-3.9226 -1.304,-0.001 -2.5018,0.4577 -3.4585,1.2222 -0.9376,-1.8828 -2.8336,-3.1742 -5.0258,-3.1759 -0.8005,-6e-4 -1.5607,0.1721 -2.2511,0.4812 -1.1199,-1.4778 -2.8597,-2.4324 -4.8189,-2.4339 -2.9465,-0.0023 -5.4064,2.1427 -5.9971,5.0037 -0.3478,-0.085 -0.7061,-0.1407 -1.0785,-0.141 -2.6034,-0.002 -4.7163,2.1764 -4.7184,4.8646 l -0.0063,7.7891 c -9e-4,1.071 0.847,1.9479 1.8842,1.9487 l 0.9429,7e-4 c 0.3605,3e-4 0.6951,-0.1105 0.9824,-0.2934 z"
             id="path386" />
        </g>
        <g
           id="hair" />
        <g
           id="skin" />
        <g
           id="skin-shadow" />
        <g
           id="line-1">
          <path
             fill="none"
             stroke="#000000"
             stroke-linecap="round"
             stroke-linejoin="round"
             stroke-miterlimit="10"
             stroke-width="2"
             d="m 49.5,50.5 h 6 c 2.2,0 4,-1.8 4,-4 v -14 c 0,-2.2 -1.8,-4 -4,-4 h -6"
             id="path392-7" />
          <polyline
             fill="none"
             stroke="#000000"
             stroke-linecap="round"
             stroke-linejoin="round"
             stroke-miterlimit="10"
             stroke-width="2.0185"
             points="38.5938,23.2301 48.9997,23.2301 48.9997,60 20,60 20,39.6348"
             id="polyline394-7" />
          <path
             fill="none"
             stroke="#000000"
             stroke-linecap="round"
             stroke-linejoin="round"
             stroke-miterlimit="10"
             stroke-width="2"
             d="m 20.2515,31.3124 c 0.753,-0.2628 1.3009,-1.0182 1.3016,-1.9033 L 21.5544,27.81 c 0.5711,0.3722 1.2338,0.5981 1.9494,0.5987 l 1.8546,0.0015 c 1.2022,9e-4 2.2653,-0.6144 2.9581,-1.5517 1.0256,1.5428 2.7125,2.5581 4.6153,2.5596 3.1115,0.0025 5.6594,-2.7007 5.662,-6.0071 l 10.9214,0.0086 c 0.2098,-0.627 0.3301,-1.3002 0.3306,-2.0036 0.0026,-3.3204 -2.5278,-6.0136 -5.6525,-6.016 -1.304,-0.001 -2.5018,0.4709 -3.4585,1.2577 -0.9376,-1.9375 -2.8336,-3.2665 -5.0258,-3.2682 -0.8005,-6e-4 -1.5606,0.1771 -2.2511,0.4952 -1.1199,-1.5208 -2.8597,-2.5031 -4.819,-2.5046 -2.9465,-0.0023 -5.4063,2.205 -5.997,5.1492 -0.3479,-0.0874 -0.7061,-0.1448 -1.0785,-0.1451 -2.6033,-0.0021 -4.7162,2.2396 -4.7184,5.0059 l -0.0063,8.0154 c -9e-4,1.1021 0.847,2.0045 1.8842,2.0053 l 0.9429,7e-4 c 0.2042,10e-5 0.4011,-0.0347 0.5857,-0.0991"
             id="path396-1" />
        </g>
      </g>
    </g>
  </g>
</svg>
