<?xml version="1.0" encoding="UTF-8" standalone="no"?>
<!-- Created with Inkscape (http://www.inkscape.org/) -->

<svg
   width="100"
   height="100"
   viewBox="0 0 25 25"
   version="1.1"
   id="svg134"
   inkscape:version="1.2.2 (b0a8486541, 2022-12-01)"
   sodipodi:docname="the_underbar-cast.svg"
   xml:space="preserve"
   xmlns:inkscape="http://www.inkscape.org/namespaces/inkscape"
   xmlns:sodipodi="http://sodipodi.sourceforge.net/DTD/sodipodi-0.dtd"
   xmlns="http://www.w3.org/2000/svg"
   xmlns:svg="http://www.w3.org/2000/svg"
   xmlns:rdf="http://www.w3.org/1999/02/22-rdf-syntax-ns#"
   xmlns:cc="http://creativecommons.org/ns#"><sodipodi:namedview
     id="namedview136"
     pagecolor="#ffffff"
     bordercolor="#000000"
     borderopacity="0.25"
     inkscape:showpageshadow="2"
     inkscape:pageopacity="0.0"
     inkscape:pagecheckerboard="0"
     inkscape:deskcolor="#d1d1d1"
     inkscape:document-units="px"
     showgrid="false"
     inkscape:zoom="7.85"
     inkscape:cx="24.713376"
     inkscape:cy="50.382166"
     inkscape:window-width="1846"
     inkscape:window-height="1011"
     inkscape:window-x="74"
     inkscape:window-y="340"
     inkscape:window-maximized="1"
     inkscape:current-layer="layer1" /><defs
     id="defs131" /><g
     inkscape:label="Layer 1"
     inkscape:groupmode="layer"
     id="layer1"><g
       id="g388"
       transform="matrix(0.20058622,0,0,0.20058622,13.191285,-0.98273016)"><g
         id="color-3"><path
           fill="#3f3f3f"
           d="m 48.11,28.5397 -4.38,4.39 -4.35,4.35 -5.81,5.47 c 0,0 -1.2755,1.3938 -3.19,1.92 -1.9145,0.5262 -4.79,-0.15 -6.5699,-1.92 l -3.58,-3.58 c -2.77,-2.78 -2.77,-7.32 0,-10.1 l 4.31,-4.3 5.51,-5.5099 4.39,-4.39 c 2.78,-2.78 7.3199,-2.78 10.09,0 l 0.6,0.6 2.98,2.98 c 2.7799,2.7699 2.7799,7.3199 -1e-4,10.0899 z"
           id="path328" /><path
           fill="#9b9b9a"
           d="m 43.8321,24.2619 c 0,0 -3.4544,3.4623 -4.3799,4.39 -0.9256,0.9277 -4.35,2.4561 -5.2784,3.3301 -0.9283,0.874 -3.2698,5.1874 -4.8817,6.4899 -1.6118,1.3025 -1.0722,1.4146 -3.19,1.92 -2.1178,0.5054 -4.79,-0.15 -6.57,-1.92 l -0.6,-0.6 c -2.77,-2.78 -2.77,-7.32 0,-10.1 l 4.31,-4.3 5.51,-5.5099 4.39,-4.39 c 2.78,-2.78 7.3199,-2.78 10.09,0 l 0.6,0.6 c 2.78,2.7799 2.78,7.3198 0,10.0899 z"
           id="path330" /><rect
           x="21.9021"
           y="54.687698"
           width="27.843201"
           height="5.2972002"
           fill="#d0cfce"
           id="rect332" /><rect
           x="47.050999"
           y="54.687698"
           width="2.6942999"
           height="5.2972002"
           fill="#3f3f3f"
           id="rect334" /><path
           fill="#9b9b9a"
           d="m 36.3643,30.5947 -0.5432,-1.3615 c -0.6895,0 -2.2504,0.9225 -2.2504,1.6119 v 24.092 c 0,10e-5 2.9293,-0.2495 2.9293,-0.2495 z"
           id="path336" /><path
           fill="#3f3f3f"
           d="M 38.1196,54.6877 37.9011,30.8685 c 0,-0.6894 -0.8474,-1.0591 -1.5368,-1.0591 L 36.5,54.6877 c 0,0 1.6196,1e-4 1.6196,0 z"
           id="path338" /><path
           fill="#d0cfce"
           d="m 32.4199,28.0879 c -0.2558,0 -0.5117,-0.0977 -0.707,-0.293 l -7.5977,-7.5971 c -0.3906,-0.3907 -0.3906,-1.0235 0,-1.4141 0.0187,-0.0186 0.0435,-0.0251 0.0632,-0.0419 l -0.0261,-0.0264 c 0,0 -0.3883,0.3664 -0.7789,0.7571 -0.3907,0.3906 -0.3907,1.0234 0,1.414 l 7.4951,7.5705 c 0.1953,0.1953 0.4511,0.2929 0.707,0.2929 0.2559,0 0.5117,-0.0976 0.707,-0.2929 0.2255,-0.2258 0.462,-0.403 0.6302,-0.5197 -0.1543,0.0892 -0.3198,0.1506 -0.4928,0.1506 z"
           id="path340" /><path
           fill="#d0cfce"
           d="m 41.0273,35.6579 -1.2024,1.1804 c -0.0477,0.3048 0.0283,0.6249 0.2632,0.8599 l 0.6086,0.5919 c 0.1953,0.1963 0.4511,0.2939 0.708,0.2939 0.2549,0 0.5107,-0.0966 0.706,-0.2919 0.3906,-0.3897 0.822,-0.7921 0.822,-0.7921 z"
           id="path342" /></g><g
         id="hair-6" /><g
         id="skin-7" /><g
         id="skin-shadow-5" /><g
         id="line"><path
           fill="none"
           stroke="#000000"
           stroke-linecap="round"
           stroke-linejoin="round"
           stroke-miterlimit="10"
           stroke-width="2"
           d="m 29.3922,18.5962 4.3865,-4.3865 c 2.7764,-2.7764 7.3196,-2.7764 10.096,0 l 3.5778,3.5778 c 2.7764,2.7765 2.7764,7.3197 0,10.0961 L 43.0661,32.27"
           id="path348" /><path
           fill="none"
           stroke="#000000"
           stroke-linecap="round"
           stroke-linejoin="round"
           stroke-miterlimit="10"
           stroke-width="2"
           d="m 29.7195,44.009 c -2.2958,0.4945 -4.7929,-0.1458 -6.5678,-1.9207 l -3.5778,-3.5778 c -2.7764,-2.7764 -2.7764,-7.3196 0,-10.096 l 4.3033,-4.3033"
           id="path350" /><path
           fill="none"
           stroke="#000000"
           stroke-linecap="round"
           stroke-linejoin="round"
           stroke-miterlimit="10"
           stroke-width="2"
           d="M 33.5707,54.6877 V 31.8448 c 0,-1.2429 1.0075,-2.2505 2.2504,-2.2505 h 0.543 c 1.2429,0 2.2504,1.0076 2.2504,2.2505 v 22.8429"
           id="path352" /><rect
           x="22.439899"
           y="54.687698"
           width="27.305401"
           height="5.2972002"
           fill="none"
           stroke="#000000"
           stroke-linecap="round"
           stroke-linejoin="round"
           stroke-miterlimit="10"
           stroke-width="2"
           id="rect354" /><line
           x1="20.996201"
           x2="18.5728"
           y1="40.498901"
           y2="42.968102"
           fill="none"
           stroke="#000000"
           stroke-linecap="round"
           stroke-linejoin="round"
           stroke-miterlimit="10"
           stroke-width="2"
           id="line356" /><line
           x1="41.635899"
           x2="42.170101"
           y1="36.304001"
           y2="36.838299"
           fill="none"
           stroke="#000000"
           stroke-linecap="round"
           stroke-linejoin="round"
           stroke-miterlimit="10"
           stroke-width="2"
           id="line358" /><line
           x1="24.822599"
           x2="32.419701"
           y1="19.490801"
           y2="27.0879"
           fill="none"
           stroke="#000000"
           stroke-linecap="round"
           stroke-linejoin="round"
           stroke-miterlimit="10"
           stroke-width="2"
           id="line360" /></g></g><text
       xml:space="preserve"
       style="font-style:normal;font-variant:normal;font-weight:bold;font-stretch:normal;font-size:23.1961px;font-family:'Courier New';-inkscape-font-specification:'Courier New, Bold';font-variant-ligatures:normal;font-variant-caps:normal;font-variant-numeric:normal;font-variant-east-asian:normal;fill:#000000;stroke-width:0.414216"
       x="7.1257005"
       y="17.399626"
       id="underscore"
       transform="scale(1.0259056,0.97474852)"
       inkscape:label="#underscore"><tspan
         sodipodi:role="line"
         id="tspan111-7-9"
         style="font-style:normal;font-variant:normal;font-weight:bold;font-stretch:normal;font-size:23.1961px;font-family:'Courier New';-inkscape-font-specification:'Courier New, Bold';font-variant-ligatures:normal;font-variant-caps:normal;font-variant-numeric:normal;font-variant-east-asian:normal;fill:#000000;stroke-width:0.414216"
         x="7.1257005"
         y="17.399626">_ </tspan></text><text
       xml:space="preserve"
       style="font-style:normal;font-variant:normal;font-weight:bold;font-stretch:normal;font-size:23.1961px;font-family:'Courier New';-inkscape-font-specification:'Courier New, Bold';font-variant-ligatures:normal;font-variant-caps:normal;font-variant-numeric:normal;font-variant-east-asian:normal;fill:#000000;stroke-width:0.414216;image-rendering:auto"
       x="0.43487105"
       y="17.399626"
       id="dollar"
       transform="scale(1.0259056,0.97474852)"
       inkscape:label="#dollar"><tspan
         sodipodi:role="line"
         id="tspan111-7-9-1"
         style="font-style:normal;font-variant:normal;font-weight:bold;font-stretch:normal;font-size:23.1961px;font-family:'Courier New';-inkscape-font-specification:'Courier New, Bold';font-variant-ligatures:normal;font-variant-caps:normal;font-variant-numeric:normal;font-variant-east-asian:normal;fill:#000000;stroke-width:0.414216"
         x="0.43487105"
         y="17.399626">$ </tspan></text><g
       id="beer"
       transform="matrix(0.26309532,0,0,0.23620175,5.2534566,6.1264796)"
       inkscape:label="#beer"><g
         id="g497"
         transform="translate(-9.3089803e-8,-3.176991)"><g
           id="color"><rect
             x="19"
             y="23.230101"
             width="29.999701"
             height="36.385601"
             fill="#fcea2b"
             id="rect380" /><polygon
             fill="#f1b31c"
             points="33,59.6157 48.9998,59.6157 48.9998,23.2301 40.5264,23.2301 "
             id="polygon382" /><path
             fill="#ffffff"
             d="m 44.1933,15.3999 c -1.304,-0.001 -2.5018,0.4709 -3.4585,1.2577 -0.9376,-1.9375 -2.8336,-3.2665 -5.0258,-3.2682 -0.8005,-6e-4 -1.5606,0.1771 -2.2511,0.4952 -1.1199,-1.5208 -2.8597,-2.5031 -4.819,-2.5046 -2.9465,-0.0023 -5.4063,2.205 -5.997,5.1492 C 22.294,16.4418 21.9358,16.3844 21.5634,16.3841 18.9601,16.382 16.8472,18.6237 16.845,21.39 l -0.0063,8.0154 c -9e-4,1.1021 0.847,2.0045 1.8842,2.0053 l 0.9429,7e-4 c 1.0372,8e-4 1.8865,-0.9002 1.8873,-2.0024 l 0.0013,-1.5991 c 0.5711,0.3722 1.2338,0.5981 1.9494,0.5987 l 1.8546,0.0015 c 1.2022,9e-4 2.2653,-0.6144 2.9581,-1.5517 1.0256,1.5428 2.7125,2.5581 4.6153,2.5596 3.1115,0.0025 5.6594,-2.7007 5.662,-6.0071 l 10.9214,0.0086 c 0.2098,-0.627 0.3301,-1.3002 0.3306,-2.0036 0.0027,-3.3203 -2.5278,-6.0135 -5.6525,-6.016 z"
             id="path384" /><path
             fill="#ffffff"
             d="m 19.8066,24.8075 c 0.0022,-2.6882 2.115,-4.8665 4.7184,-4.8646 0.3724,3e-4 0.7307,0.0561 1.0785,0.141 0.5907,-2.861 3.0506,-5.006 5.9971,-5.0037 1.9593,0.0015 3.699,0.956 4.8189,2.4339 0.6904,-0.3091 1.4505,-0.4818 2.2511,-0.4812 2.1922,0.0017 4.0882,1.2932 5.0258,3.1759 0.9567,-0.7645 2.1545,-1.2232 3.4585,-1.2222 0.5297,4e-4 1.0401,0.0815 1.5261,0.2223 -0.7688,-2.2807 -2.8627,-3.9207 -5.3338,-3.9226 -1.304,-0.001 -2.5018,0.4577 -3.4585,1.2222 -0.9376,-1.8828 -2.8336,-3.1742 -5.0258,-3.1759 -0.8005,-6e-4 -1.5607,0.1721 -2.2511,0.4812 -1.1199,-1.4778 -2.8597,-2.4324 -4.8189,-2.4339 -2.9465,-0.0023 -5.4064,2.1427 -5.9971,5.0037 -0.3478,-0.085 -0.7061,-0.1407 -1.0785,-0.141 -2.6034,-0.002 -4.7163,2.1764 -4.7184,4.8646 l -0.0063,7.7891 c -9e-4,1.071 0.847,1.9479 1.8842,1.9487 l 0.9429,7e-4 c 0.3605,3e-4 0.6951,-0.1105 0.9824,-0.2934 z"
             id="path386" /></g><g
           id="hair" /><g
           id="skin" /><g
           id="skin-shadow" /><g
           id="line-1"><path
             fill="none"
             stroke="#000000"
             stroke-linecap="round"
             stroke-linejoin="round"
             stroke-miterlimit="10"
             stroke-width="2"
             d="m 49.5,50.5 h 6 c 2.2,0 4,-1.8 4,-4 v -14 c 0,-2.2 -1.8,-4 -4,-4 h -6"
             id="path392-7" /><polyline
             fill="none"
             stroke="#000000"
             stroke-linecap="round"
             stroke-linejoin="round"
             stroke-miterlimit="10"
             stroke-width="2.0185"
             points="38.5938,23.2301 48.9997,23.2301 48.9997,60 20,60 20,39.6348"
             id="polyline394-7" /><path
             fill="none"
             stroke="#000000"
             stroke-linecap="round"
             stroke-linejoin="round"
             stroke-miterlimit="10"
             stroke-width="2"
             d="m 20.2515,31.3124 c 0.753,-0.2628 1.3009,-1.0182 1.3016,-1.9033 L 21.5544,27.81 c 0.5711,0.3722 1.2338,0.5981 1.9494,0.5987 l 1.8546,0.0015 c 1.2022,9e-4 2.2653,-0.6144 2.9581,-1.5517 1.0256,1.5428 2.7125,2.5581 4.6153,2.5596 3.1115,0.0025 5.6594,-2.7007 5.662,-6.0071 l 10.9214,0.0086 c 0.2098,-0.627 0.3301,-1.3002 0.3306,-2.0036 0.0026,-3.3204 -2.5278,-6.0136 -5.6525,-6.016 -1.304,-0.001 -2.5018,0.4709 -3.4585,1.2577 -0.9376,-1.9375 -2.8336,-3.2665 -5.0258,-3.2682 -0.8005,-6e-4 -1.5606,0.1771 -2.2511,0.4952 -1.1199,-1.5208 -2.8597,-2.5031 -4.819,-2.5046 -2.9465,-0.0023 -5.4063,2.205 -5.997,5.1492 -0.3479,-0.0874 -0.7061,-0.1448 -1.0785,-0.1451 -2.6033,-0.0021 -4.7162,2.2396 -4.7184,5.0059 l -0.0063,8.0154 c -9e-4,1.1021 0.847,2.0045 1.8842,2.0053 l 0.9429,7e-4 c 0.2042,10e-5 0.4011,-0.0347 0.5857,-0.0991"
             id="path396-1" /></g></g></g></g><metadata
     id="metadata252"><rdf:RDF><cc:Work
         rdf:about=""><cc:license
           rdf:resource="http://creativecommons.org/licenses/by-nc-sa/4.0/" /></cc:Work><cc:License
         rdf:about="http://creativecommons.org/licenses/by-nc-sa/4.0/"><cc:permits
           rdf:resource="http://creativecommons.org/ns#Reproduction" /><cc:permits
           rdf:resource="http://creativecommons.org/ns#Distribution" /><cc:requires
           rdf:resource="http://creativecommons.org/ns#Notice" /><cc:requires
           rdf:resource="http://creativecommons.org/ns#Attribution" /><cc:prohibits
           rdf:resource="http://creativecommons.org/ns#CommercialUse" /><cc:permits
           rdf:resource="http://creativecommons.org/ns#DerivativeWorks" /><cc:requires
           rdf:resource="http://creativecommons.org/ns#ShareAlike" /></cc:License></rdf:RDF></metadata></svg>
