<?xml version="1.0" encoding="UTF-8" standalone="no"?>
<svg
   class="MuiSvgIcon-root MuiSvgIcon-fontSizeMedium mui-1yqqkp6"
   focusable="false"
   aria-hidden="true"
   variant="lockup"
   height="31.99976"
   version="1.1"
   id="svg8"
   sodipodi:docname="podlink.svg"
   width="32"
   inkscape:version="1.2.2 (b0a8486541, 2022-12-01)"
   xmlns:inkscape="http://www.inkscape.org/namespaces/inkscape"
   xmlns:sodipodi="http://sodipodi.sourceforge.net/DTD/sodipodi-0.dtd"
   xmlns="http://www.w3.org/2000/svg"
   xmlns:svg="http://www.w3.org/2000/svg">
  <defs
     id="defs12" />
  <sodipodi:namedview
     id="namedview10"
     pagecolor="#ffffff"
     bordercolor="#000000"
     borderopacity="0.25"
     inkscape:showpageshadow="2"
     inkscape:pageopacity="0.0"
     inkscape:pagecheckerboard="true"
     inkscape:deskcolor="#d1d1d1"
     showgrid="false"
     inkscape:zoom="4.3666667"
     inkscape:cx="135.34351"
     inkscape:cy="16.145038"
     inkscape:window-width="1846"
     inkscape:window-height="1011"
     inkscape:window-x="74"
     inkscape:window-y="32"
     inkscape:window-maximized="1"
     inkscape:current-layer="svg8" />
  <path
     id="path2"
     style="fill:#000000"
     class="mark-shape"
     d="M 16 0 C 10.603505 0 5.2060448 1.040549 3.1230469 3.1230469 C 1.040049 5.2060448 0 10.604005 0 16 C 0 21.395995 1.040049 26.792002 3.1230469 28.875 C 5.2060448 30.957998 10.603005 32 16 32 C 21.396995 32 26.793955 30.957998 28.876953 28.875 C 30.959951 26.792002 32 21.396995 32 16 C 32 10.603005 30.959951 5.2060448 28.876953 3.1230469 C 26.793955 1.040549 21.396495 0 16 0 z M 16 4 C 17.101299 4.00011 18.466629 4.3720848 19.173828 5.4335938 C 19.509428 5.9373732 19.703313 6.6243707 19.820312 7.28125 C 19.942412 7.9668693 20 8.7401708 20 9.5 C 20 10.259799 19.942412 11.033051 19.820312 11.71875 C 19.703313 12.375549 19.509428 13.060754 19.173828 13.564453 C 18.466629 14.625952 17.101299 14.9999 16 15 C 15.7993 15 15.589553 14.987637 15.376953 14.960938 C 15.255753 14.945438 15.135731 14.926591 15.019531 14.900391 C 15.049531 14.150391 15.140547 13.468672 15.310547 13.138672 C 15.460547 13.048872 15.7302 13 16 13 C 16.799899 12.9999 17.338866 12.713131 17.509766 12.457031 C 17.613066 12.301831 17.748863 11.943887 17.851562 11.367188 C 17.949162 10.818588 18 10.166099 18 9.5 C 18 8.8338907 17.949162 8.1794488 17.851562 7.6308594 C 17.748863 7.05417 17.613066 6.6981686 17.509766 6.5429688 C 17.338866 6.286919 16.799899 6.00012 16 6 C 15.200001 6 14.663187 6.286919 14.492188 6.5429688 C 14.388888 6.6980386 14.253191 7.05394 14.150391 7.6308594 C 14.060191 8.1375689 14.011206 8.7346869 14.003906 9.3476562 C 14.003006 9.3480062 14.0009 9.3491194 14 9.3496094 C 12.810801 9.7994689 12.235747 10.539469 12.060547 10.792969 C 12.021647 10.369969 12 9.9329496 12 9.5 C 12 8.7401408 12.059541 7.9668893 12.181641 7.28125 C 12.298641 6.6243007 12.492525 5.9373732 12.828125 5.4335938 C 13.535624 4.3720948 14.898601 4 16 4 z M 16 10 C 16.2003 10 16.410847 10.010509 16.623047 10.037109 C 16.744647 10.052609 16.863969 10.073309 16.980469 10.099609 C 16.950469 10.849509 16.861406 11.529275 16.691406 11.859375 C 16.541506 11.949275 16.2698 11.9999 16 12 C 15.200001 12 14.663187 12.286869 14.492188 12.542969 C 14.388888 12.697969 14.253191 13.05396 14.150391 13.630859 C 14.052691 14.179459 14 14.833901 14 15.5 C 14 16.166099 14.052691 16.818588 14.150391 17.367188 C 14.253191 17.944087 14.388888 18.302031 14.492188 18.457031 C 14.663187 18.713131 15.200001 19 16 19 C 16.799899 18.9999 17.338866 18.713131 17.509766 18.457031 C 17.613066 18.301831 17.748863 17.943887 17.851562 17.367188 C 17.941762 16.860188 17.988894 16.26359 17.996094 15.650391 C 17.997194 15.649991 17.9989 15.650791 18 15.650391 C 19.189499 15.200291 19.764553 14.457978 19.939453 14.205078 C 19.978453 14.628278 20 15.0667 20 15.5 C 20 16.259799 19.942412 17.033051 19.820312 17.71875 C 19.703313 18.375549 19.509428 19.060754 19.173828 19.564453 C 18.466629 20.625952 17.101299 20.9999 16 21 C 14.898601 21 13.535624 20.625952 12.828125 19.564453 C 12.492525 19.060754 12.298641 18.375649 12.181641 17.71875 C 12.059541 17.033051 12 16.259899 12 15.5 C 12 14.740101 12.059541 13.966949 12.181641 13.28125 C 12.298641 12.624351 12.492525 11.937293 12.828125 11.433594 C 13.535624 10.372095 14.898601 10 16 10 z M 11.220703 19.5 C 11.280367 19.491106 11.334006 19.489925 11.378906 19.5 C 11.558506 19.5405 11.79431 19.791272 11.974609 20.076172 C 11.990009 20.100472 12.001125 20.125691 12.015625 20.150391 C 12.771224 21.25769 14.223502 21.9999 16 22 C 17.781098 21.9999 19.234282 21.254577 19.988281 20.142578 C 20.000981 20.121078 20.011991 20.097372 20.025391 20.076172 C 20.20569 19.791472 20.441494 19.5405 20.621094 19.5 C 20.980493 19.4196 21.899569 20.002228 21.980469 20.361328 C 22.020669 20.540928 21.895144 20.861585 21.714844 21.146484 C 21.697744 21.173484 21.678156 21.198409 21.660156 21.224609 L 21.667969 21.230469 C 20.65047 22.756467 18.930198 23.694447 17 23.935547 L 17 26 L 18.5 26 C 18.8372 26 19.174388 26.065213 19.304688 26.195312 C 19.434787 26.325512 19.5 26.6628 19.5 27 C 19.5 27.3371 19.434787 27.674388 19.304688 27.804688 C 19.206988 27.902187 18.993 27.961928 18.75 27.986328 L 18.5 28 L 13.5 28 L 13.25 27.986328 C 13.0066 27.961928 12.793012 27.902387 12.695312 27.804688 C 12.565213 27.674488 12.5 27.3371 12.5 27 C 12.5 26.6629 12.565313 26.325612 12.695312 26.195312 C 12.825612 26.065313 13.163 26 13.5 26 L 15 26 L 15 23.935547 C 13.069902 23.694447 11.347377 22.756467 10.330078 21.230469 L 10.339844 21.222656 C 10.321844 21.196556 10.300203 21.171431 10.283203 21.144531 C 10.102903 20.859632 9.9792213 20.540928 10.019531 20.361328 C 10.090581 20.047028 10.803055 19.562256 11.220703 19.5 z " />
</svg>
