<?xml version="1.0" encoding="UTF-8" standalone="no"?>
<!-- Created with Inkscape (http://www.inkscape.org/) -->

<svg
   width="77.049591mm"
   height="77.187881mm"
   viewBox="0 0 77.049591 77.187881"
   version="1.1"
   id="svg5"
   xml:space="preserve"
   inkscape:version="1.2.2 (b0a8486541, 2022-12-01)"
   sodipodi:docname="spotify.svg"
   xmlns:inkscape="http://www.inkscape.org/namespaces/inkscape"
   xmlns:sodipodi="http://sodipodi.sourceforge.net/DTD/sodipodi-0.dtd"
   xmlns="http://www.w3.org/2000/svg"
   xmlns:svg="http://www.w3.org/2000/svg"><sodipodi:namedview
     id="namedview7"
     pagecolor="#ffffff"
     bordercolor="#000000"
     borderopacity="0.25"
     inkscape:showpageshadow="2"
     inkscape:pageopacity="0.0"
     inkscape:pagecheckerboard="true"
     inkscape:deskcolor="#d1d1d1"
     inkscape:document-units="mm"
     showgrid="false"
     inkscape:zoom="2.7593656"
     inkscape:cx="145.50446"
     inkscape:cy="145.86686"
     inkscape:window-width="1854"
     inkscape:window-height="1011"
     inkscape:window-x="0"
     inkscape:window-y="0"
     inkscape:window-maximized="1"
     inkscape:current-layer="layer1" /><defs
     id="defs2" /><g
     inkscape:label="Layer 1"
     inkscape:groupmode="layer"
     id="layer1"
     transform="translate(-80.859614,-122.10031)"><path
       style="fill:#000000;stroke-width:0.0846667"
       d="m 116.80598,199.20509 c -6.75435,-0.44167 -13.33237,-2.69465 -19.02438,-6.51589 -2.701917,-1.81388 -5.638388,-4.4316 -7.73092,-6.89173 -5.106933,-6.00407 -8.201195,-13.19466 -9.073399,-21.08518 -0.174452,-1.57821 -0.149616,-6.86882 0.03935,-8.382 0.573394,-4.59161 1.679631,-8.42317 3.568933,-12.36133 4.549777,-9.48381 12.855006,-16.74049 22.907086,-20.01503 7.88646,-2.56908 16.72392,-2.46406 24.6361,0.29276 8.69959,3.03117 16.13213,9.20678 20.74936,17.2404 2.24137,3.89981 3.83576,8.36599 4.55839,12.76886 0.41622,2.53598 0.47536,3.35176 0.47262,6.51934 -0.003,3.11716 -0.0773,4.08225 -0.51022,6.604 -2.05106,11.94621 -9.82277,22.37125 -20.7576,27.84443 -6.09794,3.05218 -12.96531,4.4306 -19.83532,3.98137 z m 19.10183,-19.5049 c 1.26825,-0.37662 1.9327,-1.91405 1.35471,-3.13457 -0.27129,-0.57288 -0.60525,-0.86026 -1.70653,-1.46852 -3.84489,-2.12362 -8.79426,-3.99123 -13.15744,-4.9649 -7.50953,-1.67578 -14.7815,-1.7068 -22.2657,-0.095 -1.592189,0.3429 -2.009616,0.54462 -2.434462,1.17642 -0.148091,0.22023 -0.316079,0.60964 -0.373307,0.86536 -0.267509,1.19536 0.552869,2.42248 1.792539,2.68129 0.434117,0.0906 0.585955,0.0738 1.86267,-0.20691 5.0861,-1.11812 10.27081,-1.37868 15.48702,-0.77831 5.79694,0.66721 11.77802,2.55261 16.764,5.28446 0.53552,0.29342 1.10702,0.58306 1.27,0.64365 0.40023,0.1488 0.89896,0.14774 1.4065,-0.003 z m 5.06148,-9.93947 c 0.63143,-0.31086 1.06832,-0.76486 1.39541,-1.4501 0.18613,-0.38993 0.22222,-0.58271 0.22189,-1.18533 -3.4e-4,-0.61332 -0.0364,-0.79767 -0.2438,-1.24751 -0.14597,-0.31655 -0.40045,-0.67473 -0.63573,-0.89481 -0.44389,-0.41521 -1.83143,-1.17415 -3.94608,-2.15838 -12.12657,-5.64415 -25.74351,-7.31537 -38.761387,-4.75723 -1.875806,0.36862 -2.381504,0.55979 -2.928964,1.10725 -1.189715,1.18971 -1.170518,3.07834 0.04295,4.226 0.930347,0.87988 1.667832,1.00295 3.632061,0.60609 9.06532,-1.83155 18.56359,-1.41237 27.51667,1.2144 3.41639,1.00234 6.53997,2.25154 9.86968,3.94715 0.81821,0.41666 1.59926,0.79316 1.73566,0.83667 0.1364,0.0435 0.54081,0.0675 0.89869,0.0534 0.52887,-0.0209 0.75408,-0.0766 1.20295,-0.29758 z m 4.98337,-10.92658 c 2.46897,-0.95219 3.12773,-4.13844 1.2449,-6.02128 -0.4225,-0.42249 -0.72092,-0.60278 -2.21084,-1.33567 -14.9452,-7.35151 -31.73217,-9.68323 -47.908077,-6.65446 -1.768386,0.33111 -2.372652,0.5674 -2.993075,1.17038 -0.831748,0.80837 -1.196274,1.72768 -1.133605,2.8589 0.05083,0.91746 0.362548,1.63801 1.000385,2.31243 0.507582,0.53669 0.951194,0.81677 1.596495,1.00794 0.663523,0.19658 1.365351,0.16919 2.869182,-0.11197 7.980795,-1.4921 16.301705,-1.53796 24.441625,-0.13471 6.563,1.13141 12.79996,3.14937 18.53519,5.99705 0.93508,0.46428 1.90969,0.91519 2.16581,1.002 0.62784,0.21282 1.7117,0.17176 2.39201,-0.0906 z"
       id="path364" /></g></svg>
